<?xml version="1.0" ?>

<!-- Uploaded to: SVG Repo, www.svgrepo.com, Generator: SVG Repo Mixer Tools -->
<svg width="800px" height="800px" viewBox="0 0 32 32" id="svg5" version="1.1" xmlns="http://www.w3.org/2000/svg" xmlns:svg="http://www.w3.org/2000/svg">

<defs id="defs2"/>

<g id="layer1" transform="translate(-60,-292)">

<path d="m 89,294.01367 c -0.265201,4e-5 -0.519526,0.10542 -0.707031,0.29297 l -6.876953,6.87695 0.28125,-1.97851 a 1,1 0 0 0 -0.84961,-1.13281 1,1 0 0 0 -1.130859,0.84961 l -0.707031,4.94921 a 1.0001,1.0001 0 0 0 1.130859,1.13086 l 4.951172,-0.70703 a 1,1 0 0 0 0.847656,-1.13086 1,1 0 0 0 -1.130859,-0.84765 l -1.980469,0.2832 6.878906,-6.87891 c 0.390422,-0.39051 0.390422,-1.02355 0,-1.41406 C 89.519526,294.11909 89.265201,294.01371 89,294.01367 Z" id="path453423" style="color:#000000;fill:#000000;fill-rule:evenodd;stroke-linecap:round;stroke-linejoin:round;stroke-miterlimit:4.1;-inkscape-stroke:none"/>

<path d="m 66.978516,294.01172 c -0.984539,-0.0178 -1.899758,0.43314 -2.449219,1.34375 -3.28961,5.4519 -3.391983,12.29826 -0.183594,17.87305 a 1.0001,1.0001 0 0 0 0.0039,0.006 c 3.236762,5.55933 9.229977,8.89168 15.607422,8.77539 1.215284,-0.0221 2.15131,-0.75946 2.572266,-1.83399 l 1.435547,-3.66797 c 0.514767,-1.31399 0.122213,-2.82162 -0.96875,-3.71679 l -2.578125,-2.11524 c -1.327516,-1.08929 -3.35959,-0.72448 -4.226563,0.75781 l -0.966797,1.65039 c -1.645643,-0.85896 -3.114408,-2.08449 -4.089843,-3.76562 v -0.002 c -1.019581,-1.76568 -1.330942,-3.74687 -1.197266,-5.6836 l 1.828125,0.11719 c 1.709308,0.1098 3.113796,-1.44331 2.832031,-3.13281 l -0.546875,-3.2793 c -0.232096,-1.39165 -1.341447,-2.48347 -2.736328,-2.69531 l -3.910156,-0.59375 c -0.142591,-0.0217 -0.285133,-0.0346 -0.425781,-0.0371 z m 0.126953,2.01367 3.910156,0.5957 c 0.547329,0.0831 0.971429,0.50081 1.0625,1.04688 l 0.546875,3.2793 c 0.07742,0.46424 -0.260779,0.83681 -0.730469,0.80664 l -2.888672,-0.18555 a 1.0001,1.0001 0 0 0 -1.050781,0.83984 c -0.424458,2.65227 0.03028,5.45735 1.447266,7.91016 a 1.0001,1.0001 0 0 0 0.002,0.002 c 1.353863,2.33417 3.420861,4.07747 5.787109,5.06641 A 1.0001,1.0001 0 0 0 76.4395,314.9688 l 1.478516,-2.52734 c 0.265084,-0.45323 0.826521,-0.55377 1.232422,-0.22071 l 2.578125,2.11719 c 0.427033,0.3504 0.576493,0.92512 0.375,1.43945 l -1.4375,3.66797 c -0.06934,0.17701 -0.617661,0.56212 -0.746094,0.56446 -5.65845,0.10318 -10.97017,-2.85101 -13.841797,-7.78321 -2.843236,-4.94487 -2.751584,-11.00379 0.164063,-15.83594 0.06632,-0.1099 0.67509,-0.39381 0.863281,-0.36523 z" id="path453415" style="color:#000000;fill:#000000;fill-rule:evenodd;stroke-linecap:round;stroke-linejoin:round;stroke-miterlimit:4.1;-inkscape-stroke:none"/>

</g>

</svg>